<svg width="62" height="80" viewBox="0 0 62 80" fill="none" xmlns="http://www.w3.org/2000/svg">
<path d="M31.0086 0.624725C30.6284 0.625379 30.2523 0.70311 29.903 0.853222C29.5537 1.00333 29.2384 1.22271 28.9763 1.49809C28.9763 1.49809 21.8248 8.91303 14.6728 18.5205C7.52085 28.128 0.0562744 39.6715 0.0562744 49.7475C0.0562744 57.7152 2.86626 65.1722 8.2132 70.6095C13.5601 76.0467 21.3999 79.3706 30.9867 79.3706C40.5734 79.3706 48.4352 76.0467 53.7821 70.6095C59.1291 65.1722 61.9445 57.7152 61.9445 49.7475C61.9445 39.6715 54.458 28.128 47.306 18.5205C40.154 8.91303 33.0245 1.49809 33.0245 1.49809C32.7643 1.22471 32.4517 1.00649 32.1054 0.856444C31.7591 0.706399 31.3861 0.627595 31.0086 0.624725V0.624725Z" fill="#EF5350"/>
</svg>
