<svg width="132" height="86" viewBox="0 0 132 86" fill="none" xmlns="http://www.w3.org/2000/svg">
<path d="M64.4479 0.546911C64.1648 0.722194 61.4412 8.21891 61.4412 8.81218C61.4412 9.02791 61.549 9.06836 62.2367 9.06836C63.1535 9.06836 63.1535 9.06836 63.5311 7.92228L63.8007 7.11328L65.5671 7.07283L67.3334 7.03238L67.6435 7.88183C67.8188 8.35374 68.021 8.81218 68.0884 8.89308C68.1693 9.00094 68.5469 9.06836 69.0727 9.06836C69.8278 9.06836 69.9356 9.04139 69.9356 8.81218C69.9356 8.32678 67.2659 0.99186 66.9423 0.614327C66.7806 0.425561 64.7311 0.371628 64.4479 0.546911ZM66.3086 4.01212C66.5918 4.79415 66.8345 5.49528 66.8345 5.5627C66.8345 5.6436 66.3086 5.69753 65.5401 5.69753C64.0434 5.69753 64.1243 5.94023 64.9603 3.68852C65.2435 2.90649 65.4862 2.24581 65.4862 2.20536C65.4996 2.01659 65.8098 2.70424 66.3086 4.01212Z" fill="#0000FF"/>
<path d="M58.1921 0.87043C57.9899 1.03223 57.9899 1.27493 58.2191 3.80979C58.3539 5.3334 58.4618 6.80308 58.4753 7.07275C58.4753 7.78737 58.1921 8.01658 57.3427 7.96265L56.655 7.9222L56.682 8.52895C56.7224 9.2975 56.9651 9.47278 57.9225 9.47278C58.8258 9.47278 59.7023 9.09525 60.0393 8.59636C60.4304 8.0031 60.4573 7.34242 60.2416 4.01204L60.0259 0.776047L59.2169 0.735597C58.7045 0.708631 58.327 0.762564 58.1921 0.87043Z" fill="#0000FF"/>
<path d="M77.662 1.40995C77.4058 1.74704 76.0844 4.16055 74.817 6.62799C73.6035 8.98757 73.5496 9.1224 73.7923 9.29769C73.9541 9.41904 74.3046 9.47297 74.7226 9.446L75.3968 9.40555L75.8013 8.56959C76.1518 7.84149 76.2597 7.72014 76.5833 7.72014C77.3114 7.72014 79.698 8.13812 79.7923 8.28644C79.8463 8.36734 79.9272 8.7179 79.9811 9.0415C80.1429 10.1471 80.2238 10.2415 81.0867 10.3898C81.5182 10.4572 81.9092 10.4977 81.9766 10.4572C82.1384 10.3629 82.0845 9.7696 81.8014 8.25947C81.3429 5.87293 80.4261 1.86839 80.2912 1.6931C80.1699 1.54479 78.7676 1.24815 78.1339 1.24815C77.9451 1.24815 77.7294 1.32905 77.662 1.40995ZM79.1856 4.99651C79.3744 5.89989 79.5227 6.66844 79.4957 6.70889C79.4148 6.77631 77.0957 6.42574 77.0013 6.33136C76.9474 6.29091 77.2979 5.54933 77.7698 4.6864C78.2283 3.83695 78.6597 3.17627 78.7137 3.2302C78.7676 3.29762 78.9833 4.07965 79.1856 4.99651Z" fill="#0000FF"/>
<path d="M50.5469 1.70656C50.0884 1.80094 49.63 1.94926 49.5491 2.03016C49.4682 2.11106 49.266 2.82567 49.0772 3.63467C48.7536 5.10435 47.8232 10.3224 47.8232 10.673C47.8232 10.8213 47.985 10.8482 48.5783 10.7808C48.9828 10.7404 49.4008 10.6325 49.5087 10.5516C49.603 10.4707 49.7244 10.0527 49.7783 9.62126C49.8323 9.20328 49.9132 8.77181 49.9806 8.67743C50.075 8.51563 52.5828 7.98978 53.2435 7.98978C53.3918 7.98978 53.6615 8.32686 53.9716 8.87968L54.4705 9.78306L55.293 9.68868C55.7379 9.64823 56.1694 9.54036 56.2503 9.45946C56.3447 9.36508 56.1424 8.86619 55.5896 7.8145C54.7941 6.29088 52.9064 2.96051 52.3132 2.01667C51.9626 1.46386 51.8817 1.45038 50.5469 1.70656ZM51.9357 5.10435C52.3941 5.91335 52.7581 6.61448 52.7312 6.65493C52.6772 6.74931 50.2637 7.11336 50.1963 7.03246C50.1019 6.91111 50.8435 3.40546 50.9514 3.51332C51.0188 3.58074 51.4637 4.29535 51.9357 5.10435Z" fill="#0000FF"/>
<path d="M85.9408 3.40541C84.6329 3.91778 83.8644 4.80768 83.4733 6.26387C83.2306 7.18074 83.2306 7.90884 83.4868 8.7448C84.0262 10.5785 85.7385 11.6842 88.5565 12.0482C90.3768 12.2774 90.3363 12.3044 90.9161 10.4572C91.1858 9.58077 91.442 8.65042 91.4689 8.36727L91.5364 7.86839L90.4172 7.5313C89.797 7.34254 88.961 7.11332 88.5565 7.01894C87.8959 6.87062 87.815 6.8841 87.6532 7.11332C87.5453 7.24815 87.4644 7.5313 87.4644 7.73355C87.4644 8.07064 87.5318 8.11108 88.4082 8.32682C89.4734 8.583 89.4734 8.583 89.0959 9.74256L88.8667 10.4841H88.1925C87.2756 10.4707 86.3048 9.97178 85.779 9.21672C85.4149 8.70435 85.3745 8.52907 85.3745 7.67962C85.388 6.54702 85.6846 5.85937 86.4397 5.18521C87.5318 4.22789 89.6217 4.47059 91.2802 5.73802C91.6307 6.02117 91.9678 6.23691 92.0352 6.23691C92.1701 6.23691 92.4532 5.50881 92.4532 5.14476C92.4532 4.61891 90.9835 3.71553 89.5273 3.338C88.4487 3.05485 86.7498 3.08181 85.9408 3.40541Z" fill="#0000FF"/>
<path d="M42.2546 3.54029C41.1759 3.72905 38.6411 4.51108 38.4388 4.72682C38.3175 4.83468 38.2635 4.99648 38.2905 5.07738C38.3175 5.15828 38.8568 6.88415 39.477 8.92012C40.1242 11.01 40.6905 12.6415 40.7984 12.682C41.0411 12.7763 42.4299 12.3314 42.4299 12.1426C42.4299 12.0752 42.2411 11.3741 42.0119 10.5921C41.7962 9.81002 41.6344 9.09541 41.6748 9.00102C41.7018 8.90664 41.9849 8.78529 42.2816 8.73136C43.0231 8.61001 43.3872 8.85271 44.5198 10.2415C45.2883 11.1988 45.4906 11.3606 45.8411 11.3606C46.4883 11.3606 47.2839 11.0775 47.2839 10.8348C47.2839 10.4572 45.3692 8.23248 44.8164 7.94933L44.2906 7.67966L44.7085 7.35606C45.2883 6.89763 45.531 6.37178 45.531 5.58975C45.531 4.06613 44.1692 3.2032 42.2546 3.54029ZM43.2793 5.3066C43.5355 5.6302 43.576 6.25043 43.3737 6.65493C43.1984 6.97853 42.3355 7.42348 41.6613 7.53134L41.149 7.61224L40.8388 6.50661C40.677 5.88638 40.5557 5.37402 40.5692 5.34705C40.5961 5.33357 40.9467 5.2257 41.3512 5.10435C42.2681 4.84817 42.9557 4.92907 43.2793 5.3066Z" fill="#0000FF"/>
<path d="M94.7589 5.34685C94.4623 5.69742 92.2106 12.8975 92.3454 13.0728C92.5342 13.302 93.8016 13.7065 93.9364 13.5717C94.0039 13.5042 94.2735 12.8166 94.5432 12.0346C94.8129 11.2525 95.0825 10.5784 95.123 10.5244C95.2713 10.3761 96.2825 10.902 96.4848 11.2256C96.5792 11.4009 96.7275 12.2368 96.7949 13.0998C96.8623 13.9627 96.9837 14.7312 97.0646 14.8256C97.1994 14.9874 98.305 15.4054 98.6152 15.4054C99.0331 15.4054 98.723 11.9806 98.2511 11.3334L97.968 10.9559H98.5208C99.1814 10.9559 100.017 10.5514 100.314 10.1065C100.732 9.47274 100.84 8.71768 100.611 8.16486C100.152 7.07271 99.4241 6.6008 96.8354 5.69742C95.0825 5.09067 94.9747 5.07718 94.7589 5.34685ZM98.0084 7.63901C98.8444 8.20531 98.8174 9.10869 97.9545 9.60757C97.6174 9.78286 97.496 9.78286 96.6736 9.56712C96.1747 9.43229 95.7162 9.28398 95.6488 9.21656C95.5949 9.16263 95.6758 8.75813 95.8376 8.31318C95.9994 7.88171 96.1882 7.38283 96.2421 7.22103C96.35 6.9244 96.3634 6.9244 96.9567 7.12665C97.2938 7.248 97.7657 7.47721 98.0084 7.63901Z" fill="#0000FF"/>
<path d="M32.5336 6.57389C32.0212 6.76266 31.5358 6.96491 31.4414 7.04581C31.2122 7.23458 31.1178 9.80989 31.2257 13.1403C31.2796 14.9605 31.3605 15.9852 31.4684 16.0931C31.5762 16.201 31.8055 16.1605 32.3718 15.9043L33.1268 15.5538L33.0864 14.5021L33.0594 13.4639L34.6774 12.8301L36.2954 12.1964L37.037 12.9919L37.7786 13.8009L38.628 13.5043C39.0999 13.3425 39.464 13.1403 39.464 13.0324C39.464 12.6549 33.8684 6.22333 33.5448 6.23681C33.5043 6.25029 33.0459 6.39861 32.5336 6.57389ZM34.974 10.5245C35.2437 10.8346 35.4325 11.1178 35.4055 11.1447C35.3111 11.2122 33.0459 12.0346 32.9515 12.0346C32.8976 12.0346 32.8572 11.1717 32.8572 10.1065L32.8706 8.19189L33.6796 9.06831C34.1246 9.5537 34.7178 10.2009 34.974 10.5245Z" fill="#0000FF"/>
<path d="M25.9941 9.37845C24.8885 9.8234 24.875 9.9043 25.6705 11.5223L26.3447 12.9111L24.7402 13.7605C23.8503 14.219 23.0817 14.5695 23.0143 14.5291C22.9469 14.4886 22.6098 13.9088 22.2592 13.2347C21.8952 12.574 21.5446 11.9672 21.4637 11.8998C21.2884 11.7515 20.0614 12.3043 19.7783 12.6414C19.6569 12.7897 20.021 13.5448 21.6255 16.3628C22.7177 18.3044 23.7154 19.9224 23.8098 19.9628C24.0795 20.0572 25.2256 19.41 25.2795 19.1404C25.3064 19.019 24.9559 18.2505 24.5109 17.428L23.7019 15.9313L25.3199 15.1358C26.1963 14.6909 26.9514 14.3268 26.9919 14.3268C27.0323 14.3268 27.3964 15.028 27.7874 15.8774C28.3402 17.0235 28.5829 17.428 28.7717 17.428C29.0818 17.428 30.093 16.9561 30.2144 16.7673C30.2953 16.6325 26.9919 9.27059 26.8031 9.14924C26.7492 9.10879 26.3851 9.21665 25.9941 9.37845Z" fill="#0000FF"/>
<path d="M104.602 10.2818C102.714 11.9402 99.3298 15.3515 99.3298 15.5942C99.3298 15.8099 100.328 16.3492 100.719 16.3492C100.8 16.3492 101.191 16.0391 101.582 15.6481L102.296 14.947L103.914 15.7425L105.532 16.538L105.505 17.6302L105.465 18.7088L106.247 19.1133C106.827 19.4234 107.042 19.4774 107.123 19.356C107.258 19.1268 107.663 15.8234 107.892 12.911C108.027 11.2256 108.04 10.5784 107.919 10.4436C107.77 10.2548 106.476 9.56714 105.977 9.41882C105.748 9.33792 105.465 9.5132 104.602 10.2818ZM105.923 13.2616C105.842 14.2593 105.748 15.0818 105.734 15.1088C105.68 15.1762 103.375 14.0031 103.375 13.9088C103.375 13.7739 105.95 11.3334 106.031 11.4009C106.058 11.4413 106.018 12.2773 105.923 13.2616Z" fill="#0000FF"/>
<path d="M111.788 13.6256C110.723 14.1245 110.278 15.2706 110.71 16.4032C110.831 16.7268 111.263 17.4279 111.681 17.9807C112.085 18.5201 112.449 19.1133 112.49 19.2751C112.624 19.7875 112.436 20.219 112.018 20.3942C111.357 20.6639 110.723 20.3673 109.631 19.2482C109.105 18.7088 108.62 18.3043 108.539 18.3448C108.377 18.4527 107.959 19.2347 107.959 19.4369C107.959 19.7336 109.361 21.0549 110.103 21.4459C111.977 22.4572 113.717 22.1875 114.431 20.7987C114.93 19.8279 114.701 18.9111 113.582 17.4549C112.584 16.1605 112.449 15.6616 112.948 15.2032C113.474 14.7178 114.701 15.2976 115.51 16.4302C115.739 16.7672 116.009 17.0099 116.09 16.983C116.184 16.956 116.386 16.7403 116.548 16.4976C116.818 16.0931 116.831 16.0122 116.656 15.6886C116.171 14.7313 114.283 13.5717 113.002 13.4369C112.517 13.3964 112.193 13.4369 111.788 13.6256Z" fill="#0000FF"/>
<path d="M60.633 14.3268C37.9946 15.6347 19.2258 23.482 11.6212 34.8215C8.84367 38.9743 7.75152 43.9362 8.6549 48.3857C11.5943 62.7993 32.5608 74.0713 59.6892 75.8107C62.5072 75.9995 70.1657 75.9995 72.9028 75.8107C92.1166 74.5433 108.391 68.6241 117.398 59.6307C127.915 49.1407 126.108 36.2237 112.8 26.691C103.577 20.0842 90.2154 15.8235 74.6557 14.5291C71.6624 14.2729 63.5454 14.165 60.633 14.3268ZM68.6152 15.783C69.7073 16.3224 70.9208 17.5763 71.8646 19.1404C73.1051 21.2168 74.3725 24.8168 75.1141 28.4169C75.3164 29.3742 75.5051 30.2371 75.5321 30.318C75.5591 30.4124 76.3006 30.2236 77.5141 29.8057C85.3345 27.1225 91.9008 26.1247 95.0424 27.1225C96.9166 27.7292 97.9144 28.9562 97.9009 30.709C97.8874 32.6237 96.8222 34.3765 93.8829 37.3293C91.739 39.4597 90.175 40.7676 87.2221 42.8845C86.2378 43.5856 85.4423 44.1789 85.4693 44.1923C85.4963 44.2193 86.4131 44.8665 87.5053 45.662C92.5615 49.2621 95.784 52.4846 96.9975 55.1408C97.2537 55.6936 97.375 56.2195 97.4155 56.961C97.4694 57.8914 97.4425 58.0936 97.1189 58.7408C96.2829 60.4397 94.3413 61.2487 91.0514 61.2487C87.6266 61.2487 81.7749 60.0757 76.8939 58.4172C76.2332 58.2015 75.6669 58.0397 75.6265 58.0667C75.5995 58.1071 75.3973 58.9566 75.195 59.9678C73.7253 66.9791 71.4062 71.5635 68.6152 72.9388C67.941 73.2758 67.6983 73.3163 66.5657 73.3163C65.3926 73.3163 65.2174 73.2758 64.5567 72.9118C61.7791 71.3882 59.5274 66.9117 58.0847 60.1026C57.869 59.0914 57.6667 58.2285 57.6263 58.188C57.5858 58.1611 56.4397 58.4847 55.0779 58.9296C45.761 61.9768 39.5182 62.4622 37.0373 60.3453C35.3788 58.9296 35.4327 56.7183 37.1991 54.0756C38.6957 51.8239 42.4036 48.3991 46.3542 45.6081L47.77 44.5968L46.125 43.4508C37.9676 37.7743 34.3541 33.2978 35.3114 30.0484C35.5541 29.2394 36.7676 28.0663 37.7519 27.7023C40.0575 26.8393 44.1699 27.0011 49.2396 28.1607C51.1138 28.5922 54.4847 29.5495 56.2779 30.1562C57.6667 30.6281 57.6667 30.6281 57.7206 30.3315C58.9746 23.873 60.7005 19.4505 62.8443 17.1718C63.6937 16.2819 64.1117 15.9853 65.069 15.5808C66.1747 15.1223 67.4151 15.1898 68.6152 15.783Z" fill="#E80000"/>
<path d="M65.6079 18.5066C63.6798 19.7741 61.6842 24.5471 60.5921 30.5337L60.4033 31.572L62.1022 32.2461C63.0326 32.6102 64.4483 33.1765 65.2303 33.5135L66.6596 34.1068L68.736 33.2169C69.8821 32.718 71.2574 32.1382 71.7967 31.9225C72.5383 31.6259 72.7675 31.4776 72.7675 31.2753C72.7675 30.7764 72.0664 27.6213 71.6079 25.9899C70.6911 22.8078 69.5585 20.4482 68.3315 19.1403C67.2663 17.9943 66.6056 17.8459 65.6079 18.5066Z" fill="#E80000"/>
<path d="M89.4869 29.6978C87.788 29.9405 85.0643 30.5068 83.0688 31.0596C80.9789 31.6259 76.2867 33.163 76.1114 33.3248C76.0171 33.4057 76.1114 34.6192 76.489 38.2597L76.5564 38.9338L77.9182 39.6754C78.6733 40.0799 80.0755 40.8889 81.0328 41.4552L82.7722 42.4934L83.8104 41.8058C89.8105 37.7608 94.1656 33.6618 94.9476 31.3023C95.1499 30.709 95.1499 30.6011 94.9746 30.3315C94.8667 30.1562 94.5431 29.9405 94.26 29.8461C93.6128 29.6303 90.6734 29.536 89.4869 29.6978Z" fill="#E80000"/>
<path d="M39.6521 30.1022C38.6948 30.2909 38.1285 30.6011 38.0341 30.9651C37.6835 32.4078 40.4611 35.6843 44.9915 39.1225C47.0544 40.7001 50.1151 42.7765 50.3578 42.7765C50.4657 42.7765 51.1668 42.399 51.9219 41.927C52.6635 41.4551 54.0523 40.6326 54.9961 40.0933L56.695 39.109L56.7894 37.9495C56.8433 37.3023 56.9647 36.0483 57.059 35.1584C57.1534 34.2685 57.1939 33.5 57.1534 33.446C57.0186 33.3247 52.6635 31.9629 50.7893 31.4775C46.0971 30.237 41.7285 29.6977 39.6521 30.1022Z" fill="#E80000"/>
<path d="M71.6347 35.0507L70.165 35.6709L71.837 36.5204C72.7538 36.9788 73.5224 37.3428 73.5359 37.3293C73.6033 37.2754 73.2527 34.417 73.1853 34.417C73.1448 34.4304 72.4437 34.7136 71.6347 35.0507Z" fill="#E80000"/>
<path d="M59.9046 35.2934C59.8641 35.6979 59.7832 36.3721 59.7428 36.79L59.6619 37.5316L61.3608 36.6822C62.2911 36.2237 63.0597 35.8058 63.0597 35.7518C63.0597 35.6709 60.3091 34.5518 60.1068 34.5518C60.0394 34.5518 59.9585 34.8889 59.9046 35.2934Z" fill="#E80000"/>
<path d="M63.0325 39.0283L59.4864 40.8216L59.4459 44.4216L59.4189 48.0351L60.8886 48.7767C61.6976 49.1812 63.2887 49.9363 64.4213 50.4621L66.4707 51.4194L68.5067 50.4486C70.9876 49.2756 73.6034 47.9003 73.7382 47.7115C73.8596 47.5362 73.873 41.3609 73.7652 40.9159C73.6978 40.6732 73.2124 40.3766 71.7022 39.6215C69.7741 38.6507 66.7808 37.2485 66.6325 37.2485C66.6055 37.2485 64.9741 38.0575 63.0325 39.0283ZM68.3314 41.1856C69.1674 41.5631 70.0438 42.3587 70.4348 43.0733C70.7719 43.6935 70.7719 45.5003 70.4348 46.1205C69.4775 47.8868 66.9831 48.8441 64.8797 48.2509C60.8212 47.0913 60.6324 42.4126 64.5831 40.9968C65.6078 40.6328 67.3202 40.7137 68.3314 41.1856Z" fill="#E80000"/>
<path d="M76.6777 44.1924V46.161L76.9879 45.9992C77.5946 45.6756 80.0486 44.2329 80.0486 44.1924C80.0486 44.1655 79.3339 43.734 78.471 43.2486C77.5946 42.7497 76.8395 42.3048 76.7856 42.2778C76.7182 42.2509 76.6777 43.1003 76.6777 44.1924Z" fill="#E80000"/>
<path d="M54.8344 43.4508C53.985 43.9631 53.2704 44.4351 53.2569 44.489C53.2029 44.6238 53.2704 44.6508 55.1445 45.716L56.5872 46.5385V44.5294C56.5872 43.4103 56.5468 42.5069 56.4929 42.5204C56.4254 42.5204 55.6839 42.9384 54.8344 43.4508Z" fill="#E80000"/>
<path d="M82.0707 46.2958C81.7336 46.5115 80.3583 47.334 79.01 48.116L76.556 49.5318L76.4751 50.4352C76.4346 50.934 76.3133 52.188 76.2054 53.2262C76.0976 54.2644 76.0436 55.1273 76.0706 55.1678C76.2189 55.3026 81.0055 56.7319 82.9471 57.2038C86.5202 58.0802 88.2865 58.3364 90.9022 58.3499C93.0865 58.3499 93.2214 58.3364 93.8686 58.0128C94.4483 57.7296 94.5427 57.6083 94.5832 57.2307C94.745 55.5858 91.3607 51.9183 86.3179 48.2913C84.7538 47.1587 83.0549 46.0126 82.8392 45.9452C82.7583 45.9182 82.4077 46.08 82.0707 46.2958Z" fill="#E80000"/>
<path d="M49.7116 46.7138C44.0891 50.597 40.3542 54.0082 39.0598 56.4622C38.6014 57.3386 38.5475 57.878 38.898 58.1746C40.2194 59.3207 45.3161 58.8488 51.7341 57.0015C54.1881 56.2869 56.9791 55.3701 57.1544 55.1948C57.1949 55.1543 57.1544 54.3184 57.06 53.361C56.9522 52.3902 56.8308 51.2037 56.7904 50.7048L56.7095 49.8015L55.2668 49.0329C54.4713 48.6149 53.069 47.8194 52.1656 47.2666C51.2487 46.7273 50.4532 46.2823 50.4128 46.2823C50.3588 46.2958 50.0487 46.4846 49.7116 46.7138Z" fill="#E80000"/>
<path d="M71.7159 52.0261C70.799 52.4845 70.1114 52.9025 70.1653 52.9295C70.3676 53.0643 73.0373 54.1025 73.1586 54.1025C73.226 54.1025 73.3069 53.7655 73.3609 53.361C73.4013 52.9565 73.4822 52.2823 73.5227 51.8778C73.5766 51.4733 73.5496 51.1497 73.4957 51.1632C73.4283 51.1767 72.6328 51.5542 71.7159 52.0261Z" fill="#E80000"/>
<path d="M59.7427 52.107C59.7967 52.498 59.8641 53.1048 59.9045 53.4553C59.945 53.8194 60.0259 54.1025 60.0798 54.1025C60.2012 54.1025 62.8035 53.0508 62.8844 52.9699C62.9383 52.9295 59.8776 51.4059 59.7293 51.4059C59.6888 51.4059 59.7023 51.7295 59.7427 52.107Z" fill="#E80000"/>
<path d="M65.4192 54.9655C64.9069 55.2082 63.599 55.7611 62.5203 56.1925C61.4417 56.624 60.5248 57.015 60.4709 57.0555C60.4169 57.0959 60.5518 57.9993 60.7675 59.0645C62.1563 65.9275 64.5159 70.5522 66.6327 70.5522C68.817 70.5522 71.3519 65.3342 72.6868 58.1072C72.862 57.1364 72.8485 57.042 72.6463 56.9746C72.525 56.9341 71.1631 56.3813 69.5991 55.7611C68.0485 55.1408 66.6732 54.6015 66.5653 54.5745C66.4575 54.5476 65.9451 54.7228 65.4192 54.9655Z" fill="#E80000"/>
<path d="M14.3044 15.9179C13.0909 16.7134 13.1179 16.6055 13.5089 18.5201C13.9943 20.9067 15.073 25.2888 15.2078 25.4506C15.3561 25.5989 16.1247 25.2213 16.5292 24.7899C16.7988 24.5067 16.7988 24.4932 16.5561 23.5224L16.3 22.5516L17.8371 21.5269L19.3607 20.5022L20.1966 21.1494L21.0326 21.7831L21.6259 21.4595C22.4618 21.0011 22.6911 20.7314 22.4753 20.4617C21.8955 19.7606 15.7741 15.4055 15.3696 15.4055C15.2213 15.4055 14.7494 15.6347 14.3044 15.9179ZM16.7045 18.5336C17.4191 19.0325 18.0528 19.5044 18.0932 19.5853C18.1607 19.6932 16.0033 21.2572 15.9089 21.1629C15.8955 21.1359 15.7202 20.3943 15.5314 19.5044C15.3427 18.628 15.1539 17.792 15.1134 17.6437C15.0191 17.3336 15.0056 17.3336 16.7045 18.5336Z" fill="#0000FF"/>
<path d="M118.719 17.3874C118.085 18.1021 114.431 23.6437 114.431 23.8729C114.431 24.0212 114.593 24.2504 114.808 24.3718C115.011 24.5066 115.981 25.2212 116.979 25.9628L118.786 27.3112L119.177 26.8932C119.379 26.6505 119.555 26.3943 119.555 26.3269C119.555 26.2595 118.907 25.7066 118.112 25.0999C117.303 24.5066 116.669 23.9538 116.683 23.8864C116.71 23.819 117.006 23.374 117.357 22.8886C117.748 22.3358 118.031 22.0527 118.125 22.1336C119.797 23.401 120.498 23.8999 120.606 23.8999C120.795 23.8999 121.307 23.2931 121.307 23.0504C121.307 22.9291 120.768 22.4302 120.094 21.9313C119.433 21.4324 118.88 20.974 118.88 20.9066C118.88 20.7448 119.865 19.329 119.986 19.3156C120.026 19.3156 120.714 19.801 121.523 20.4077C122.319 21.001 123.047 21.5268 123.128 21.5673C123.33 21.6347 123.869 20.9875 123.869 20.6774C123.856 20.4482 123.478 20.138 120.997 18.3178C120.121 17.6841 119.285 17.1582 119.164 17.1582C119.029 17.1582 118.826 17.2661 118.719 17.3874Z" fill="#0000FF"/>
<path d="M7.96672 20.5697C6.57794 21.6349 6.55097 21.6888 7.02289 23.5225C7.25211 24.3585 7.61616 25.7068 7.85885 26.5293C8.10155 27.3383 8.27684 28.0259 8.26335 28.0529C8.23639 28.0664 7.68357 27.8372 7.02289 27.5405C4.0296 26.1518 2.6543 25.6259 2.31722 25.7068C1.81833 25.8282 0.105955 27.3518 0.0115716 27.7563C-0.0693282 28.0799 0.213821 28.4035 2.8161 31.0058L5.71501 33.9047L6.21389 33.4732C7.17121 32.6237 7.25211 32.7855 4.58241 30.008C3.04532 28.4035 2.30373 27.5405 2.51947 27.608C3.01835 27.7698 6.51052 29.3338 7.75099 29.9541C8.35774 30.2507 8.97797 30.5069 9.12629 30.5069C9.46337 30.5069 10.4746 29.6035 10.4746 29.2934C10.4746 29.172 10.3533 28.7136 10.2049 28.2686C9.74652 26.9473 8.42515 22.2551 8.49257 22.2012C8.53302 22.1607 9.49033 23.3203 10.6229 24.763C11.769 26.2057 12.7937 27.3922 12.9151 27.4057C13.0364 27.4057 13.4005 27.1765 13.7241 26.8799C14.1825 26.4754 14.2769 26.327 14.169 26.1787C14.0881 26.0709 13.0364 24.6821 11.8229 23.0911C9.61168 20.1652 9.34202 19.8551 9.04539 19.8551C8.96449 19.8551 8.4656 20.1787 7.96672 20.5697Z" fill="#0000FF"/>
<path d="M122.818 25.2618C120.714 27.8101 120.269 28.4169 120.391 28.6057C120.606 28.9562 121.456 29.5495 121.618 29.4821C121.766 29.4147 122.561 28.5113 124.935 25.6663C125.541 24.9517 125.77 24.7494 125.717 24.9921C125.663 25.1809 125.541 25.9629 125.42 26.745C125.312 27.5135 125.056 28.9967 124.867 30.0349C124.678 31.0596 124.557 32.0439 124.597 32.1922C124.678 32.5293 125.932 33.7428 126.188 33.7428C126.283 33.7428 127.658 32.4484 129.249 30.8574C131.824 28.2821 132.108 27.9585 131.973 27.7023C131.784 27.3517 131.042 26.7315 130.813 26.7315C130.651 26.7315 128.346 29.0102 127.078 30.4394L126.593 30.9652L126.849 29.8326C127.362 27.5 127.806 24.2506 127.658 23.873C127.496 23.4416 125.973 22.1472 125.636 22.1472C125.474 22.1472 124.449 23.2798 122.818 25.2618Z" fill="#0000FF"/>
<path d="M4.97326 59.9139C3.75976 61.033 2.80245 62.0173 2.82941 62.0982C2.85638 62.1791 3.09908 62.4218 3.36875 62.6375L3.85414 63.042L4.43393 62.5296C4.75753 62.2465 5.76877 61.2892 6.68564 60.4127L8.35757 58.8217L7.85869 58.3498C7.57554 58.0936 7.31935 57.8779 7.26542 57.8779C7.21149 57.8779 6.18676 58.7948 4.97326 59.9139Z" fill="#0000FF"/>
<path d="M124.206 58.2958C123.95 58.525 123.734 58.7812 123.734 58.8756C123.734 58.9565 123.909 59.5767 124.125 60.2374C124.341 60.9116 124.503 61.4644 124.489 61.4779C124.476 61.4914 123.829 61.3026 123.06 61.0464C121.577 60.5745 121.55 60.5745 120.835 61.1678C120.566 61.3835 120.471 61.5453 120.566 61.6262C120.647 61.7071 121.617 62.0172 122.723 62.3273L124.745 62.8936L125.568 63.7026C126.471 64.5925 126.566 64.5925 127.226 63.8914L127.563 63.5408L126.741 62.6914C126.013 61.9363 125.905 61.761 125.703 60.9116C125.231 58.943 124.921 57.8778 124.799 57.8778C124.745 57.8778 124.476 58.0666 124.206 58.2958Z" fill="#0000FF"/>
<path d="M7.26534 62.0983L5.20239 64.1747L5.68779 64.5927C5.94397 64.8354 6.22712 65.0242 6.29454 65.0242C6.36196 65.0242 7.09006 64.2961 7.92602 63.4062C8.76199 62.5163 9.46312 61.8016 9.4766 61.8286C9.49008 61.8421 9.42267 62.2331 9.32828 62.705C9.00468 64.2421 8.70805 66.6421 8.78895 66.9118C8.88333 67.2219 9.86762 67.9905 10.1508 67.9905C10.326 67.9905 14.1149 63.7298 14.1149 63.541C14.1149 63.3927 13.3868 62.8668 13.198 62.8668C13.1171 62.8668 12.4294 63.568 11.6609 64.4039C10.9058 65.2534 10.2721 65.941 10.2586 65.9275C10.2451 65.914 10.4204 64.8354 10.6362 63.541L11.0407 61.1949L10.4204 60.6151C10.0968 60.2915 9.70582 60.0353 9.57098 60.0353C9.43615 60.0353 8.41142 60.9522 7.26534 62.0983Z" fill="#0000FF"/>
<path d="M118.935 62.7319C116.211 64.0803 115.456 66.305 117.087 68.1253C118.153 69.3118 119.406 69.4736 121.146 68.6646C122.063 68.2331 123.735 66.7095 123.735 66.305C123.735 66.0084 121.982 64.0803 121.699 64.0803C121.591 64.0803 120.998 64.4443 120.391 64.9028C119.42 65.6309 119.312 65.7522 119.433 65.9814C119.663 66.4264 119.919 66.4129 120.553 65.9679L121.146 65.5365L121.618 66.0488C122.171 66.6556 122.13 66.8039 121.308 67.3837C120.512 67.9365 119.406 68.0039 118.746 67.559C116.818 66.2511 117.559 64.1477 120.269 63.2713C120.836 63.096 120.903 62.8398 120.472 62.5432C120.054 62.2465 119.851 62.2735 118.935 62.7319Z" fill="#0000FF"/>
<path d="M14.7083 65.0916C14.4926 65.2129 14.196 65.4826 14.0611 65.7118C13.7106 66.3051 13.8454 66.9927 14.5061 67.9635C15.3285 69.177 15.1937 69.8781 14.1825 69.6894C13.7106 69.595 12.8341 68.8534 12.3487 68.1253L12.133 67.8152L11.8499 68.0983C11.6881 68.2601 11.5532 68.5028 11.5532 68.6377C11.5532 69.0557 12.4296 69.9456 13.2656 70.377C14.6679 71.1186 15.6521 71.0782 16.3398 70.2692C16.8522 69.6489 16.7982 69.0287 16.151 68.0309C15.342 66.7635 15.3016 66.6826 15.4634 66.3725C15.76 65.8197 16.7982 66.1433 17.3645 66.9657C17.7421 67.532 17.9443 67.5725 18.2275 67.1275C18.4836 66.75 18.3893 66.5073 17.796 65.941C16.8791 65.0781 15.4903 64.7005 14.7083 65.0916Z" fill="#0000FF"/>
<path d="M112.611 67.0871C110.818 67.6803 109.577 69.0287 109.577 70.3905C109.577 71.55 110.872 73.2085 112.004 73.5186C112.759 73.7209 113.447 73.586 114.552 73.0332C116.13 72.2512 117.02 70.9568 116.777 69.8377C116.575 68.8669 115.672 67.6803 114.795 67.2354C114.256 66.9522 113.245 66.8848 112.611 67.0871ZM113.663 68.3141C113.905 68.4084 114.337 68.759 114.606 69.0826C115.712 70.3635 115.55 71.3748 114.135 72.0759C112.988 72.6557 112.26 72.3995 111.451 71.1051C110.723 69.9725 110.979 69.0017 112.166 68.4084C112.84 68.0714 113.069 68.0579 113.663 68.3141Z" fill="#0000FF"/>
<path d="M18.9696 67.3296C18.7404 67.7341 18.8617 67.9229 19.6303 68.3543C20.0078 68.5566 20.3179 68.7588 20.3179 68.7993C20.3179 68.8397 19.6842 69.7836 18.9022 70.8757C18.1336 71.9814 17.5269 72.9387 17.5673 73.0061C17.7022 73.2083 18.6999 73.6668 18.8483 73.5859C18.9157 73.5319 19.5359 72.669 20.2101 71.6578C20.8842 70.6465 21.4775 69.7566 21.5449 69.6892C21.6123 69.6218 22.0033 69.7431 22.4753 69.9993C23.2708 70.4308 23.3112 70.4308 23.5674 70.2016C23.9584 69.851 23.8775 69.6487 23.1899 69.2577C22.8258 69.0555 21.8415 68.4757 20.9786 67.9633C20.1157 67.4644 19.3471 67.0465 19.2662 67.0465C19.1853 67.0465 19.0505 67.1678 18.9696 67.3296Z" fill="#0000FF"/>
<path d="M24.3221 70.6466C21.6524 74.8938 21.4906 75.1635 21.6794 75.2848C22.0973 75.568 22.6097 75.8107 22.7715 75.8107C22.9333 75.8107 25.7243 71.2938 25.8187 70.8758C25.8592 70.687 25.1041 70.1477 24.8075 70.1477C24.7131 70.1477 24.4974 70.3769 24.3221 70.6466Z" fill="#0000FF"/>
<path d="M105.303 71.0914C105.06 71.2397 104.858 71.415 104.858 71.4824C104.858 71.7386 107.595 76.3769 107.797 76.4443C108.094 76.5656 111.33 74.8533 111.33 74.5836C111.33 74.4622 111.208 74.26 111.073 74.1386C110.817 73.9094 110.763 73.9229 109.712 74.4892C109.105 74.7993 108.579 75.0016 108.539 74.9342C108.296 74.3274 106.085 70.8757 105.923 70.8487C105.815 70.8352 105.532 70.9431 105.303 71.0914Z" fill="#0000FF"/>
<path d="M26.5462 71.3882C26.1956 71.7387 26.3709 72.0219 27.1934 72.4399C27.9619 72.8309 28.0024 72.8713 27.8541 73.1545C27.7597 73.3163 27.2473 74.2601 26.6945 75.2444C26.1552 76.2152 25.7102 77.0781 25.7102 77.159C25.7102 77.2938 26.2361 77.604 26.7484 77.7523C27.0046 77.8332 27.1394 77.6444 28.1642 75.6893C28.7844 74.4893 29.3507 73.5185 29.4316 73.5185C29.5125 73.5185 29.917 73.6668 30.335 73.8421C31.0361 74.1657 31.09 74.1657 31.2923 73.9365C31.7103 73.4781 31.5485 73.3028 30.2001 72.7095C29.472 72.3994 28.4743 71.9275 27.9754 71.6848C26.9776 71.1859 26.7889 71.1455 26.5462 71.3882Z" fill="#0000FF"/>
<path d="M100.988 72.9793C99.4374 73.4917 98.3857 74.6378 98.3857 75.8378C98.3857 76.485 98.7902 77.5636 99.2756 78.1973C100.098 79.276 101.662 79.4648 103.388 78.6827C105.491 77.7254 106.058 76.1479 104.952 74.3142C104.076 72.8445 102.754 72.3995 100.988 72.9793ZM102.39 73.9366C102.593 74.0175 102.916 74.2063 103.091 74.3681C103.469 74.7187 104.049 75.8917 104.049 76.3232C104.049 77.5636 102.013 78.5075 100.988 77.7524C100.476 77.3614 99.8689 76.1748 99.8689 75.5277C99.8689 74.8805 100.381 74.2602 101.15 73.9906C101.811 73.7613 101.918 73.7479 102.39 73.9366Z" fill="#0000FF"/>
<path d="M32.3584 73.8286C32.3045 73.923 31.873 74.7724 31.4146 75.7297C30.4573 77.7118 30.3629 78.2916 30.8753 79.0601C31.2798 79.6669 32.7629 80.4219 33.7337 80.5028C35.5675 80.6511 35.972 80.3275 36.9563 77.8062C37.3742 76.7679 37.7113 75.8241 37.7113 75.7432C37.7113 75.5679 37.0372 75.2713 36.6461 75.2713C36.4978 75.2713 36.2012 75.8241 35.6888 77.0646C35.2843 78.0354 34.8259 78.9792 34.6506 79.141C33.909 79.8961 32.0483 79.1949 32.0483 78.1567C32.0483 77.9949 32.4124 77.0646 32.8708 76.0803C33.7607 74.1252 33.7607 74.0983 32.8978 73.8151C32.5742 73.7072 32.4393 73.7072 32.3584 73.8286Z" fill="#0000FF"/>
<path d="M95.6891 75.0961C95.1632 75.2983 95.1632 75.3927 95.7834 76.9298C96.1205 77.7658 96.4711 78.6018 96.579 78.804C96.6868 79.0197 96.7408 79.1815 96.7138 79.1815C96.6733 79.1815 95.7565 78.5074 94.6643 77.6849C92.8171 76.2826 92.6553 76.2017 92.2238 76.2826C91.5092 76.4175 91.1047 76.5927 91.0238 76.822C90.9429 76.9972 92.48 81.7569 92.7362 82.1748C92.8171 82.2962 92.9789 82.2827 93.3834 82.1748C93.68 82.0805 93.9497 81.9591 93.9902 81.9052C94.0171 81.8512 93.7475 80.9883 93.3834 79.9905C92.4531 77.4422 92.48 77.5501 93.0059 78.0489C93.2621 78.2782 94.2194 79.0332 95.1362 79.7209C96.6329 80.8265 96.8621 80.9479 97.2666 80.8939C97.9408 80.7861 98.4531 80.4894 98.4801 80.1928C98.5071 80.0445 98.0486 78.831 97.4689 77.4961C96.3902 75.0152 96.2823 74.8669 95.6891 75.0961Z" fill="#0000FF"/>
<path d="M38.5329 76.1883C38.2632 76.7007 38.3576 76.8355 39.1936 77.0917C39.652 77.2265 40.043 77.3748 40.07 77.4288C40.0969 77.4827 39.7733 78.5209 39.3284 79.7344C38.6273 81.7165 38.5598 81.9592 38.7621 82.1075C39.0452 82.3367 39.8542 82.485 39.9891 82.3367C40.0565 82.2693 40.4205 81.2445 40.8116 80.058C41.2026 78.8715 41.5396 77.8872 41.5531 77.8602C41.5666 77.8333 41.9981 77.9276 42.497 78.049C43.4678 78.2917 43.643 78.2378 43.643 77.631C43.643 77.3883 43.3599 77.267 41.3913 76.7007C40.1374 76.3501 39.0318 76.0265 38.8969 75.986C38.7621 75.9456 38.6138 76.0265 38.5329 76.1883Z" fill="#0000FF"/>
<path d="M88.4081 77.3073C88.2329 77.3747 88.0576 77.4556 88.0306 77.4826C88.0036 77.5095 88.125 77.9949 88.2868 78.5747C88.5295 79.3972 88.5565 79.6264 88.4216 79.7208C88.1789 79.8691 86.116 80.3006 86.0351 80.2197C85.9946 80.1927 85.8463 79.6938 85.6845 79.114L85.4014 78.0758L84.862 78.1432C84.5654 78.1837 84.2688 78.2781 84.1879 78.359C84.08 78.4668 84.2148 79.2219 84.6328 80.9612C85.4283 84.2916 85.3339 84.0894 85.9946 83.995C86.8306 83.8871 86.871 83.7793 86.5879 82.5927C86.4396 82.0129 86.3182 81.4871 86.3182 81.4197C86.3182 81.3118 88.8261 80.6376 88.9205 80.7185C88.934 80.7455 89.0958 81.2579 89.2846 81.8781C89.4733 82.4983 89.6486 83.0242 89.6756 83.0646C89.7834 83.159 90.6329 82.9703 90.8756 82.7815C91.0913 82.6332 91.0374 82.3905 90.2554 79.923C89.4598 77.4286 89.3789 77.2264 89.0688 77.1994C88.8935 77.1859 88.5969 77.2264 88.4081 77.3073Z" fill="#0000FF"/>
<path d="M44.5469 77.7927C44.3312 78.1433 42.9829 83.1591 43.0772 83.2535C43.2525 83.4287 46.9874 84.2108 47.2301 84.1164C47.3649 84.0625 47.4189 83.9141 47.3919 83.6714C47.3514 83.3074 47.284 83.2804 46.111 83.0242C45.4368 82.8759 44.8301 82.7141 44.7896 82.6737C44.7222 82.5928 44.857 81.8377 45.0593 81.2445C45.0997 81.1366 45.4098 81.1636 46.2323 81.3388C46.8526 81.4872 47.3919 81.5546 47.4458 81.5006C47.4998 81.4467 47.5672 81.2445 47.5807 81.0692C47.6211 80.7456 47.5537 80.7186 46.502 80.4759C45.2615 80.1793 45.2615 80.1793 45.6391 79.168L45.7739 78.8175L46.9604 79.0736C47.6076 79.2085 48.2144 79.3029 48.3222 79.2624C48.4166 79.222 48.4975 79.0197 48.4975 78.804C48.4975 78.4264 48.4975 78.413 46.7851 78.0624C44.9514 77.6714 44.6413 77.6444 44.5469 77.7927Z" fill="#0000FF"/>
<path d="M80.1969 79.0063C79.4149 79.2894 78.6194 80.0984 78.4171 80.8265C78.0261 82.2962 78.6194 83.9277 79.7789 84.5479C80.3183 84.8311 80.5205 84.8581 81.5318 84.8176C83.0689 84.7367 83.9992 84.3052 84.0666 83.6446C84.134 82.9569 83.9318 82.876 83.2846 83.3075C82.4756 83.8468 81.2351 83.9277 80.6688 83.4828C80.1565 83.0783 79.9138 82.458 79.9138 81.5681C79.9138 80.1389 81.0599 79.4108 82.5969 79.8557C82.8531 79.9232 83.0958 79.9501 83.1632 79.9232C83.2981 79.8288 83.0554 79.0198 82.8531 78.8849C82.5565 78.7097 80.8306 78.7906 80.1969 79.0063Z" fill="#0000FF"/>
<path d="M53.7158 79.5051C52.2327 79.9096 51.4641 81.0422 51.4641 82.7951C51.4641 84.1704 52.1113 84.8985 53.6889 85.3164C55.7248 85.8423 57.4372 85.2625 58.0844 83.8468C58.381 83.1726 58.4215 81.6625 58.1518 81.0288C57.9091 80.449 57.3024 79.9096 56.6417 79.6669C55.7923 79.3703 54.4574 79.2894 53.7158 79.5051ZM55.9945 80.5973C57.1271 81.0692 57.1136 83.5097 55.981 84.2513C55.5361 84.5479 54.3226 84.5344 53.7563 84.2378C52.9608 83.8198 52.7585 82.6468 53.2844 81.3793C53.6484 80.5029 54.9024 80.1389 55.9945 80.5973Z" fill="#0000FF"/>
<path d="M74.9382 79.6669C74.0079 79.7748 73.1989 79.9096 73.1314 79.977C72.9292 80.1793 73.4146 85.4108 73.6438 85.5996C73.7786 85.6939 74.3719 85.6805 75.6933 85.5591C76.718 85.4647 77.6349 85.3569 77.7292 85.3164C77.9585 85.2355 77.9315 84.5883 77.7023 84.4939C77.5944 84.4535 76.9472 84.4804 76.2596 84.5613C75.5719 84.6422 74.9921 84.6827 74.9652 84.6557C74.9382 84.6422 74.8843 84.2512 74.8438 83.7928L74.7494 82.9568H75.2079C75.4641 82.9568 75.9899 82.9164 76.3809 82.8759C77.0416 82.795 77.0821 82.7681 77.0821 82.404C77.0821 82.2018 77.0281 81.9995 76.9607 81.9591C76.9068 81.9186 76.3674 81.9456 75.7877 81.9995C75.2079 82.0669 74.709 82.1074 74.682 82.0939C74.6685 82.0669 74.6146 81.7433 74.5607 81.3523C74.4933 80.7456 74.5067 80.6647 74.736 80.6647C75.3427 80.6512 77.0146 80.3815 77.109 80.2871C77.2708 80.1253 76.9877 79.4512 76.7854 79.4647C76.691 79.4781 75.8551 79.5725 74.9382 79.6669Z" fill="#0000FF"/>
<path d="M59.9047 80.1118C59.8642 80.1657 59.7294 81.4466 59.608 82.9568C59.4193 85.2624 59.4193 85.7074 59.5676 85.8017C59.8238 85.9635 60.7271 85.9501 60.835 85.8017C60.8755 85.7208 60.9429 85.1815 60.9968 84.6017L61.0777 83.5365L62.2642 83.604C63.4508 83.6714 63.4508 83.6714 63.5317 83.3208C63.6665 82.8354 63.5182 82.6871 62.9384 82.6871C62.6553 82.6871 62.1429 82.6466 61.7923 82.6062L61.1586 82.5118L61.1991 81.7568L61.2395 81.0152L62.4935 81.0556L63.7339 81.0961V80.6242V80.1657L62.8305 80.0848C61.5361 79.95 59.9856 79.977 59.9047 80.1118Z" fill="#0000FF"/>
<path d="M68.2909 80.0849L66.8347 80.1388V80.5973V81.0692H67.7785C68.3044 81.0692 68.7359 81.0827 68.7359 81.0962C68.7493 81.1231 68.7898 82.1883 68.8437 83.4692C68.9111 85.303 68.9651 85.8288 69.1269 85.9367C69.3022 86.058 70.3134 85.9906 70.4482 85.8558C70.4752 85.8288 70.4348 84.7636 70.3539 83.4827C70.246 81.649 70.246 81.1231 70.3808 81.0422C70.4617 80.9883 70.8932 80.9344 71.3112 80.9344C72.1471 80.9344 72.2955 80.8265 72.1741 80.3141C72.0797 79.9501 72.3359 79.9636 68.2909 80.0849Z" fill="#0000FF"/>
</svg>
